<?xml version="1.0" encoding="utf-8"?>
<!-- Generator: Adobe Illustrator 19.1.1, SVG Export Plug-In . SVG Version: 6.00 Build 0)  -->
<svg version="1.1" id="Layer_1" xmlns="http://www.w3.org/2000/svg" xmlns:xlink="http://www.w3.org/1999/xlink" x="0px" y="0px"
	 viewBox="0 0 250 250" style="enable-background:new 0 0 250 250;" xml:space="preserve">
<style type="text/css">
	.st0{fill:none;stroke:#000000;stroke-width:10;stroke-miterlimit:10;}
</style>
<rect x="172.6" y="161.4" width="13.8" height="12.5"/>
<rect x="146.4" y="161.4" width="13.8" height="12.5"/>
<rect x="116.8" y="161.4" width="17.5" height="12.5"/>
<rect x="204.8" y="36.4" width="14.3" height="13.9"/>
<rect x="204.8" y="57.3" width="14.3" height="13.9"/>
<path class="st0" d="M165.8,18h51c0,0,17.8,3.9,17.8,18.4s0,45.8,0,45.8h-36.6l-32-32C165.9,50.1,165.6,17.9,165.8,18z"/>
<ellipse class="st0" cx="196.9" cy="117.6" rx="14" ry="15.4"/>
<line class="st0" x1="182.9" y1="116" x2="116.2" y2="116"/>
<rect x="64.7" y="161.4" width="13.8" height="12.5"/>
<rect x="90.9" y="161.4" width="13.8" height="12.5"/>
<rect x="116.8" y="161.4" width="17.5" height="12.5"/>
<rect x="32.1" y="36.4" width="14.3" height="13.9"/>
<rect x="32.1" y="57.3" width="14.3" height="13.9"/>
<path class="st0" d="M85.4,18h-51c0,0-17.8,3.9-17.8,18.4s0,45.8,0,45.8h36.6l32-32C85.3,50.1,85.5,17.9,85.4,18z"/>
<ellipse class="st0" cx="54.3" cy="117.6" rx="14" ry="15.4"/>
<line class="st0" x1="68.3" y1="116" x2="135" y2="116"/>
<polygon points="100.9,186.8 104,186.8 147.2,186.8 152.5,186.8 152.5,186.8 196.7,186.8 196.7,176.8 147.2,176.8 104,176.8 
	54.5,176.8 54.5,186.8 100.9,186.8 "/>
<polygon points="58,78 102.8,78 102.8,49.3 148.3,49.3 148.3,78 192.6,78 182,68 158.3,68 158.3,39.3 92.8,39.3 92.8,68 67.9,68 "/>
<path d="M223.6,198.6c-2.2-13.6-13.3-19.4-21.9-21.2V162c0-2.5,0.9-3.6,1.5-4.3c2.1-2.1,6.1-2.4,7.5-2.4l5.2,0.2V82.6h-10v63.2
	c-3,0.6-6.7,1.9-9.6,4.7c-3,2.9-4.6,6.9-4.6,11.5v24.6l4.8,0.2c0.7,0,16.1,0.8,17.4,14.9l-0.9,0.9l1.4,3.1c0.7,1.7,1.8,2.5,3.3,2.8
	V229H33.5v-20.5c1.4-0.3,2.5-1.1,3.3-2.8l1.4-3.2l-0.9-0.9c1.3-13.7,15.7-14.8,17.4-14.8l4.8-0.2V162c0-4.6-1.6-8.6-4.6-11.5
	c-2.9-2.8-6.6-4.1-9.6-4.7V83.6h-10v71.9l5.2-0.2c1,0,5.3,0.3,7.5,2.4c0.7,0.6,1.5,1.8,1.5,4.3v15.4c-8.6,1.7-19.7,7.5-21.9,21.2
	l-4.1-0.2V239h204.2v-40.6L223.6,198.6z"/>
<polygon points="147.2,198.7 147.2,198.7 137.2,198.7 137.2,198.7 114,198.7 114,198.7 104,198.7 104,198.7 32.2,198.7 32.2,208.7 
	104,208.7 147.2,208.7 219,208.7 219,198.7 "/>
</svg>
