<?xml version="1.0" encoding="utf-8"?>
<!-- Generator: Adobe Illustrator 19.1.1, SVG Export Plug-In . SVG Version: 6.00 Build 0)  -->
<svg version="1.1" id="Layer_1" xmlns="http://www.w3.org/2000/svg" xmlns:xlink="http://www.w3.org/1999/xlink" x="0px" y="0px"
	 viewBox="0 0 250 250" style="enable-background:new 0 0 250 250;" xml:space="preserve">
<style type="text/css">
	.st0{fill:none;stroke:#000000;stroke-width:10;stroke-miterlimit:10;}
</style>
<circle class="st0" cx="163.7" cy="100.3" r="24.7"/>
<rect x="157.1" y="93.3" transform="matrix(0.7071 0.7071 -0.7071 0.7071 119.1008 -86.7015)" width="14.2" height="14.3"/>
<path d="M170.1,194.5h-31.6h-26.2H80.7l-19.4,9.2v34.7h51h26.2h51v-34.7L170.1,194.5z M179.5,228.3H170v-5.8h-10v5.8h-13.7v-6.5h-10
	v6.5h-1v0h-14.9v0h-5.9v-6.5h-10v6.5H90.8v-5.8h-10v5.8h-9.5V210l11.6-5.5h29.4h8.1h1.9h6.2h6.8h3.2h29.4l11.6,5.5V228.3z"/>
<path d="M156.7,127.3l-4.2-2l0.5,0.4l-46.7,48.9c-3.3,0.1-6.7,0.2-8.5,0.1l-1.5-0.2c-49.6-5.9-56.5-46.5-57.3-60.7h100.7l3.1,2.7
	l-0.2-0.2l-4-9.1l0.7-3.4H29l-0.2,4.8c0,0.7-0.6,17.1,7.2,34.7c7.2,16.3,23.2,36.6,58.2,41c0.9,0.3,2.4,0.4,5.1,0.4
	c2.2,0,5.2-0.1,9.4-0.2l2-0.1l53.5-56.1L156.7,127.3z"/>
<path d="M205.8,75.3c-1.5,4.1-6.3,7.8-9,9.5h-9.9l3.7,10h8.9l1.1-0.6c0.9-0.5,5.9-3.4,10.1-8.1L205.8,75.3z"/>
<polygon points="122.3,167 112.3,177 162.5,177 162.5,194.5 89.3,194.5 89.3,177.5 79.3,175.2 79.3,204.5 172.5,204.5 172.5,167 "/>
<path d="M191.7,25.4c-11.9-9.1-23.7-12.7-24.2-12.8l-0.7-0.2H99.2l-0.5,0.1C70.8,18.7,64,46.1,63.8,47.2l-1,4.1h108.5
	c0,0,11,1.4,21.6,10c9.8,7.5,13.4,17.7,13.6,18.4l9.7,29.4V72.9C216.3,54.1,207.7,37.7,191.7,25.4z M168.1,43.4H75.8
	c3.2-6.9,10.4-17.6,24.5-21h64.9C169.9,23.9,196,33.6,204,58C196.5,50.4,185,43.4,168.1,43.4z"/>
<path d="M47.2,66.2c1.3-5.9,5.9-10.9,13.8-14.9h105.9v-3.5H70.5v-6.5H58.7l-1,0.5c-11.4,5.5-18.2,13-20.3,22.2
	C34.1,79,45,92.4,45.5,93l1.5,1.8h90.4l4.3-10H51.9C49.7,81.4,45.5,73.8,47.2,66.2z"/>
<path d="M208.1,82.5c-0.6,0.4-1.9,1.1-3.2,1.9h-7l-1.8,10h3.2l0.2,0.4h6.8v32L166,167.1h-44.2l-9.4,10h57.8l46.1-46.1V74.3
	L208.1,82.5z"/>
</svg>
