<?xml version="1.0" encoding="utf-8"?>
<!-- Generator: Adobe Illustrator 19.1.1, SVG Export Plug-In . SVG Version: 6.00 Build 0)  -->
<svg version="1.1" xmlns="http://www.w3.org/2000/svg" xmlns:xlink="http://www.w3.org/1999/xlink" x="0px" y="0px"
	 viewBox="0 0 250 250" style="enable-background:new 0 0 250 250;" xml:space="preserve">
<style type="text/css">
	.st0{display:none;}
	.st1{display:inline;fill:none;stroke:#000000;stroke-width:10;stroke-miterlimit:10;}
	.st2{display:inline;}
	.st3{fill:none;stroke:#000000;stroke-width:10;stroke-miterlimit:10;}
</style>
<g id="Layer_1" class="st0">
	<polygon class="st1" points="190.9,36.8 127.3,36.8 126.1,36.8 125.7,36.8 61,36.8 24.9,72.9 24.9,123.5 78.8,177.5 125.9,177.5 
		126,177.5 173,177.5 227,123.5 227,72.9 	"/>
	<polygon class="st2" points="148.2,218.8 125.6,185 125.6,185 125.6,185 125.6,185 125.6,185 102.9,218.8 125.6,218.8 125.6,218.8 
			"/>
	<polygon class="st2" points="86.7,99.5 125.6,157.4 125.6,157.5 125.6,157.5 125.6,157.5 125.6,157.5 164.4,99.6 125.6,99.6 
		125.6,99.5 	"/>
	<polygon class="st2" points="163.8,89.4 125.6,49.9 125.6,49.8 125.6,49.8 125.6,49.8 125.6,49.9 87.4,89.3 125.6,89.3 125.6,89.4 
			"/>
</g>
<g id="Layer_2" class="st0">
	<polygon class="st1" points="191.2,36.8 127.6,36.8 126.4,36.8 126,36.8 61.2,36.8 25.2,72.9 25.2,123.5 79.1,177.5 126.2,177.5 
		126.2,177.5 173.3,177.5 227.2,123.5 227.2,72.9 	"/>
	<polygon class="st2" points="87,99.5 125.8,157.4 125.8,157.5 125.9,157.5 125.9,157.5 125.9,157.5 164.7,99.6 125.9,99.6 
		125.9,99.5 	"/>
	<polygon class="st2" points="164.1,89.4 125.9,49.9 125.9,49.8 125.8,49.8 125.8,49.8 125.8,49.9 87.6,89.3 125.8,89.3 125.8,89.4 
			"/>
	<polygon class="st2" points="89.2,218.8 66.6,185 66.6,185 66.6,185 66.6,185 66.6,185 43.9,218.8 66.6,218.8 66.6,218.8 	"/>
	<polygon class="st2" points="207.9,218.8 185.3,185 185.3,185 185.3,185 185.3,185 185.3,185 162.6,218.8 185.3,218.8 185.3,218.8 
			"/>
	<polygon class="st2" points="174.5,99.5 187.7,99.5 140,152.6 	"/>
	<polygon class="st2" points="174.4,89.4 187.7,89.4 164.2,50 136.7,50 	"/>
	<polygon class="st2" points="76.6,99.5 63.4,99.5 111.1,152.6 	"/>
	<polygon class="st2" points="76.7,89.4 63.4,89.4 86.8,50 114.4,50 	"/>
</g>
<g id="Layer_3">
	<polygon class="st3" points="191.2,36.9 127.5,36.9 126.4,36.9 126,36.9 61.2,36.9 25.2,72.9 25.2,123.6 79.1,177.5 126.2,177.5 
		126.2,177.5 173.3,177.5 227.2,123.6 227.2,72.9 	"/>
	<polygon points="87,99.6 125.8,157.5 125.8,157.6 125.8,157.5 125.8,157.5 125.8,157.5 164.7,99.6 125.8,99.6 125.8,99.6 	"/>
	<polygon points="164,89.4 125.8,49.9 125.8,49.9 125.8,49.9 125.8,49.9 125.8,49.9 87.6,89.4 125.8,89.4 125.8,89.4 	"/>
	<polygon points="89.2,218.8 66.6,185.1 66.6,185 66.6,185 66.6,185 66.6,185 43.9,218.8 66.6,218.8 66.6,218.8 	"/>
	<polygon points="207.9,218.8 185.3,185.1 185.3,185 185.2,185 185.2,185 185.2,185 162.6,218.8 185.2,218.8 185.2,218.8 	"/>
	<polygon points="148.5,218.8 125.8,185.1 125.8,185 125.8,185 125.8,185 125.8,185 103.2,218.8 125.8,218.8 125.8,218.8 	"/>
	<polygon points="174.8,99.6 201.3,99.6 138.6,153.3 	"/>
	<polygon points="174.7,89.4 201.2,89.4 176.4,59.1 	"/>
	<polygon points="137.1,49.9 168.3,56.7 166.9,80.6 	"/>
	<polygon points="76.7,99.6 50.2,99.6 112.9,153.3 	"/>
	<polygon points="76.8,89.4 50.3,89.4 75.1,59.1 	"/>
	<polygon points="114.4,49.9 83.2,56.7 84.6,80.6 	"/>
</g>
</svg>
