<?xml version="1.0" encoding="utf-8"?>
<!-- Generator: Adobe Illustrator 19.1.1, SVG Export Plug-In . SVG Version: 6.00 Build 0)  -->
<svg version="1.1" id="Layer_1" xmlns="http://www.w3.org/2000/svg" xmlns:xlink="http://www.w3.org/1999/xlink" x="0px" y="0px"
	 viewBox="0 0 250 250" style="enable-background:new 0 0 250 250;" xml:space="preserve">
<style type="text/css">
	.st0{fill:none;stroke:#000000;stroke-width:10;stroke-miterlimit:10;}
</style>
<polygon class="st0" points="190.9,36.8 127.3,36.8 126.1,36.8 125.7,36.8 61,36.8 24.9,72.9 24.9,123.5 78.8,177.5 125.9,177.5 
	126,177.5 173,177.5 227,123.5 227,72.9 "/>
<polygon points="148.2,218.8 125.6,185 125.6,185 125.6,185 125.6,185 125.6,185 102.9,218.8 125.6,218.8 125.6,218.8 "/>
<polygon points="86.7,99.5 125.6,157.4 125.6,157.5 125.6,157.5 125.6,157.5 125.6,157.5 164.4,99.6 125.6,99.6 125.6,99.5 "/>
<polygon points="163.8,89.4 125.6,49.9 125.6,49.8 125.6,49.8 125.6,49.8 125.6,49.9 87.4,89.3 125.6,89.3 125.6,89.4 "/>
</svg>
