<?xml version="1.0" encoding="utf-8"?>
<!-- Generator: Adobe Illustrator 19.1.1, SVG Export Plug-In . SVG Version: 6.00 Build 0)  -->
<svg version="1.1" id="Layer_1" xmlns="http://www.w3.org/2000/svg" xmlns:xlink="http://www.w3.org/1999/xlink" x="0px" y="0px"
	 viewBox="0 0 250 250" style="enable-background:new 0 0 250 250;" xml:space="preserve">
<path d="M188.2,56.3c-10.9-10.6-22-11.4-22.5-11.5l-5.1-0.3l-2.7,58.4c-0.2,2.1-0.4,4.5-0.7,7c0-0.1,0-0.1,0-0.2
	c-1.6-13.8-4.4-33.7-8.6-50.2c-5.7-22.8-12.2-33.4-21.1-34.2l-0.2-0.1l-1.6,0l-0.2,0c-8.8,0.8-15.3,11.4-21,34.2
	c-4.1,16.5-6.9,36.4-8.6,50.2c0,0.1,0,0.1,0,0.2c-0.3-2.5-0.5-4.9-0.7-7l-2.7-58.4l-5.1,0.3c-0.5,0-11.6,0.9-22.5,11.5
	c-13.8,13.5-20.8,35.9-20.8,66.5c0,46.4,44,72.5,56,78.8v27.2H153v-27.2c12-6.3,56-32.4,56-78.8C209,92.2,202,69.8,188.2,56.3z
	 M197.5,101.3h-29.6l2.1-45.1C178,59.2,192.9,69.2,197.5,101.3z M126.5,35.2c0.5,0.1,8.7,1.9,16.6,47.7c0.8,4.6,1.5,9.1,2.1,13.6
	h-10.6h-16.3h-10.6c0.6-4.5,1.3-9,2.1-13.6C117.8,37.1,126.1,35.2,126.5,35.2z M83,56.1l2.1,45.1H55.5C60.2,69,75.1,59.1,83,56.1z
	 M145.9,194l-2.9,1.3v23.5h-32.9v-23.5l-2.9-1.3c-0.5-0.2-53.1-24.9-53.1-71.1c0-4.1,0.1-8,0.4-11.6H86c1.1,8.7,3.4,21.8,8.2,27.8
	c0.4,0.6,0.9,1.2,1.8,1.6c3.5-0.1,7.6-6.1,7.6-6.1l0,0l0,0c0.3-4.3,1.3-15.1,2.9-28.1h11.9h16.3h11.9c1.6,13.1,2.6,23.9,2.9,28.1
	c0,0,4.1,6.1,7.6,6.1c0.8-0.5,1.4-1,1.8-1.6c4.7-6,7.1-19.1,8.2-27.8h31.5c0.3,3.6,0.4,7.5,0.4,11.6C199,169,146.4,193.7,145.9,194z
	"/>
</svg>
