<?xml version="1.0" encoding="utf-8"?>
<!-- Generator: Adobe Illustrator 19.1.1, SVG Export Plug-In . SVG Version: 6.00 Build 0)  -->
<svg version="1.1" id="Layer_1" xmlns="http://www.w3.org/2000/svg" xmlns:xlink="http://www.w3.org/1999/xlink" x="0px" y="0px"
	 viewBox="0 0 250 250" style="enable-background:new 0 0 250 250;" xml:space="preserve">
<path d="M123,231.7c-45.8,0-83-34.1-83-76c0-41.3,12.7-73.5,37.8-95.8c46.7-41.5,118.9-33.6,122-33.3l9.5,1.1l-6.3,7.2
	C176.9,64.5,170,84.7,168.2,92c23.4,14,37.8,38.1,37.8,63.7C206,197.6,168.7,231.7,123,231.7z M183,35.9c-23.3,0-67.9,4-98.8,31.5
	c-22.8,20.3-34.4,50-34.4,88.3c0,36.4,32.8,66,73,66s73-29.6,73-66c0-23.2-13.7-44.9-35.8-56.8l-4.7-2.5c0,0,7.9-29.3,33.3-60.4
	C187.1,36,185.1,35.9,183,35.9z"/>
<path d="M129.6,125.5c-24.4,0-41,16.6-41,33.9s13.1,28,30.6,27.8s22.2-18.4,15.2-25.7c0,0-3.3,12.8-14.7,12.8S107,163,107,161.3
	s-0.3-18,23.4-18s25.3,18.3,25.3,23.5c0,5.2-1.8,33.2-34.3,33.2c0,0-30.3,1.4-68.3-14.7c-0.8-0.1,32.6,22.6,67.2,22.6
	c0,0,49.5,2.3,49.5-41.9C169.8,140.6,154,125.5,129.6,125.5z"/>
</svg>
