<?xml version="1.0" encoding="utf-8"?>
<!-- Generator: Adobe Illustrator 19.1.1, SVG Export Plug-In . SVG Version: 6.00 Build 0)  -->
<svg version="1.1" id="Layer_1" xmlns="http://www.w3.org/2000/svg" xmlns:xlink="http://www.w3.org/1999/xlink" x="0px" y="0px"
	 viewBox="0 0 250 250" style="enable-background:new 0 0 250 250;" xml:space="preserve">
<g>
	<path d="M102.9,164.2c-0.7,0-1.4-0.2-2.2-0.5l-0.5-0.2l-0.4-0.3L57.4,130l0.1-71.7l42.2-33c3.1-2.4,5.5-1.2,6.6-0.3l0,0l42.4,33.4
		l0.1,71.7l-1.9,1.5c0,0-10.2,7.9-20.4,15.8c-5.1,4-10.2,7.9-14.1,10.9c-1.9,1.5-3.5,2.7-4.7,3.6C106,163.1,104.6,164.2,102.9,164.2
		z M67.4,125.1l35.6,27.7c6.6-5.1,23.3-18,35.8-27.7l-0.1-62l-35.5-27.9c-8,6.3-29.2,22.9-35.7,27.9L67.4,125.1z"/>
</g>
<g>
	<path d="M103,128.8c-1.7,0-3.2-1.2-5.7-3.1c-1.5-1.2-3.6-2.8-5.6-4.3c-4.1-3.1-8.1-6.3-8.1-6.3l-1.9-1.5l0-31.5l10-7.8
		c2-1.6,4.1-3.2,5.6-4.4c3.5-2.8,5-3.9,7.8-2.5l0.5,0.2L124,82.1l0,31.5L105.6,128l-0.5,0.2C104.3,128.6,103.6,128.8,103,128.8z
		 M91.7,108.7c3.7,2.9,8.3,6.4,11.2,8.7l11.1-8.7l0-21.7l-11.1-8.8C100,80.5,95.5,84,91.7,87L91.7,108.7z"/>
</g>
<g>
	<path d="M167.4,228.4c-0.7,0-1.4-0.2-2.2-0.6l-0.4-0.2l-27.9-20.7l0.1-45.2l2-1.5c0,0,6.4-4.8,12.8-9.6c3.2-2.4,6.4-4.8,8.8-6.6
		c1.2-0.9,2.2-1.7,2.9-2.2c1.6-1.2,3.6-2.6,6.3-1.3l0.4,0.2l27.9,20.9l0.1,45.2l-2,1.5c0,0-6.4,4.8-12.9,9.5
		c-3.2,2.4-6.4,4.8-8.9,6.5c-1.2,0.9-2.2,1.6-3,2.2C170.5,227.4,169.1,228.4,167.4,228.4z M147,201.9l20.6,15.3
		c4.5-3.3,13.6-10,20.7-15.3l0-35.1l-20.6-15.4c-4.5,3.4-13.5,10.1-20.6,15.4L147,201.9z"/>
</g>
<path d="M178.2,192.8l0-16.6l-10.6-7.9c0,0,0,0,0,0l0,0l0,0c0,0,0,0,0,0l-10.6,7.9l0,16.6l10.6,7.8
	C167.6,200.7,178.2,192.8,178.2,192.8z"/>
</svg>
