<?xml version="1.0" encoding="utf-8"?>
<!-- Generator: Adobe Illustrator 19.1.1, SVG Export Plug-In . SVG Version: 6.00 Build 0)  -->
<svg version="1.1" id="Layer_1" xmlns="http://www.w3.org/2000/svg" xmlns:xlink="http://www.w3.org/1999/xlink" x="0px" y="0px"
	 viewBox="0 0 250 250" style="enable-background:new 0 0 250 250;" xml:space="preserve">
<path d="M114.5,199.6l22.4-21.4v-25.4H64.5v0h-5.2v5.4c0,0,0,0,0,0c0,0,0,0.1,0,0.2v6.5h0c0,3.3,0,7.4,0,11.3l0,5h25.7l-26.2,22.6
	v27.2h78.3v-31.3H114.5z M127.1,220.9H68.8v-12.6l43-37.2H69.2c0-1.3,0-2.7,0-4.1c0-1.7,0-3.1,0-4.3h57.6v11.2l-37.3,35.7h37.5
	V220.9z"/>
<path d="M149.8,127V93.2h-36.9l36.6-35V24H44.8h-0.1h-5v5.5c0,0,0-0.1,0-0.1c0,0.1,0,0.2,0,0.4v8h0c0,5.6,0,12.9-0.1,18.3l0,5h42
	L39,98v36.6h102.2L149.8,127z M49,124.7v-22l59.4-51.5H49.7c0-2.4,0-5.5,0-8.5c0-3.1,0-6.2,0-8.7h89.8v19.9l-51.4,49.3h51.8v21.5H49
	z"/>
<path d="M192.2,129L222,99.9V69.6h-89.2v2.2h-3.9v5.9c-0.6-0.8-1-1.7-1-2.6c0.1,1.4,0,14.8,0,22.9l0,5H162l-22.2,19.6v2.1h-2.4
	l-10.2,9v32.5h95V129H192.2z M212.3,156.1h-75v-18l51.2-45.2h-50.6c0-2,0-4.3,0-6.6c0-2.8,0-5,0-6.7H212v16.1L167.6,139h44.7V156.1z
	"/>
</svg>
