<?xml version="1.0" encoding="utf-8"?>
<!-- Generator: Adobe Illustrator 19.1.1, SVG Export Plug-In . SVG Version: 6.00 Build 0)  -->
<svg version="1.1" id="Layer_1" xmlns="http://www.w3.org/2000/svg" xmlns:xlink="http://www.w3.org/1999/xlink" x="0px" y="0px"
	 viewBox="0 0 250 250" style="enable-background:new 0 0 250 250;" xml:space="preserve">
<g>
	<path d="M207.9,229.2l-49.1-26.8l-44.6,26.1L126,172l-39.6-41.5h52.4l19.5-57.2l18.5,56.2h58l-42.7,43.4L207.9,229.2z M158.7,190.9
		l33.2,18.2L181,170l30-30.6h-41.4l-11.5-34.8L146,140.4h-36.2l27.1,28.5l-8.2,39.6L158.7,190.9z"/>
</g>
<polygon points="95.1,130.5 98.3,130.5 91.3,126.7 61.2,144.3 69.4,104.7 42.3,76.3 78.6,76.3 90.8,40.5 102.2,75.3 143.6,75.3 
	113.6,105.8 120.5,130.5 130.9,130.5 124.8,108.7 167.4,65.3 109.4,65.3 90.9,9 71.4,66.3 19,66.3 58.6,107.8 46.8,164.2 
	91.4,138.2 96.6,141 "/>
</svg>
