<?xml version="1.0" encoding="utf-8"?>
<!-- Generator: Adobe Illustrator 19.1.1, SVG Export Plug-In . SVG Version: 6.00 Build 0)  -->
<svg version="1.1" id="Layer_1" xmlns="http://www.w3.org/2000/svg" xmlns:xlink="http://www.w3.org/1999/xlink" x="0px" y="0px"
	 viewBox="0 0 250 250" style="enable-background:new 0 0 250 250;" xml:space="preserve">
<path d="M175.2,168.9c-3.3,4.4-16.2,19.5-48.7,19.5c-32.5,0-45.4-15.1-48.7-19.5c-3.3-4.4-3.7,1-3.7,1c7.9,30.8,49.4,30,52.4,29.9
	c3.1,0.1,44.5,0.9,52.4-29.9C178.9,169.9,178.5,164.5,175.2,168.9z"/>
<path d="M181.5,117.5c-15.6-17.4-33.3-37-38.8-82.6l0,0c-1-7.8-8-13.6-16.1-13.3c-8.1-0.3-15.1,5.5-16.1,13.3
	c-5.4,45.5-23.2,65.2-38.8,82.6c-13.1,14.6-24.5,27.2-23.2,50.6l0.1,0.5c4,25.8,18,44,40.6,52.8c12.4,4.8,24.7,5.7,31.9,5.7l9.9,0
	c7,0.1,20-0.6,33-5.7c22.6-8.8,36.6-27,40.6-52.8l0.1-0.5C206,144.7,194.7,132.1,181.5,117.5z M194.8,167.2
	c-6.9,43.4-43.9,49.3-60.4,49.8l0,0l-0.4,0c-1.1,0-2.1,0-2.9,0l-11.9,0l0,0c-16.3-0.4-53.8-6-60.7-49.8
	c-0.9-19.1,8.2-29.1,20.7-43.1c15.8-17.5,35.5-39.4,41.3-88c0.4-3,3.3-4.7,5.9-4.6l0.2,0l0.2,0c2.6-0.1,5.6,1.5,5.9,4.6
	c5.8,48.7,25.5,70.5,41.3,88C186.7,138.1,195.7,148.2,194.8,167.2z"/>
</svg>
